<svg width="80" height="80" viewBox="0 0 80 80" fill="none" xmlns="http://www.w3.org/2000/svg">
<path d="M11.9897 11.9587L16.368 61.5754C16.5497 63.637 17.9847 65.3754 19.9747 65.9437L37.713 71.012C39.2097 71.4404 40.7947 71.4404 42.2913 71.012L60.0297 65.9437C62.0197 65.3754 63.4547 63.6387 63.6363 61.5754L68.0147 11.9587C68.188 10.0087 66.653 8.33203 64.6964 8.33203H15.3097C13.353 8.33203 11.818 10.0087 11.9897 11.9587Z" fill="url(#paint0_linear_25_616)"/>
<path d="M40 13.332V66.4987L56.46 61.7954C57.7883 61.4154 58.745 60.2554 58.865 58.8804L62.675 15.1437C62.76 14.1687 61.9933 13.332 61.015 13.332H40Z" fill="#35C1F1"/>
<path d="M55.1667 21.668H40V28.3346H48.1667L47.6667 35.0013H40V41.668H47.3333L46.8333 49.168L40 51.5013V58.5013L53.1667 54.168L54.3333 35.0013L55.1667 21.668Z" fill="white"/>
<path d="M39.9974 21.668V28.3346H25.1641L24.6641 21.668H39.9974ZM32.3307 35.0013L32.6641 41.668H39.9974V35.0013H32.3307ZM32.9974 45.0013H26.3307L26.8307 54.168L39.9974 58.5013V51.5013L33.1641 49.168L32.9974 45.0013Z" fill="#D6E0E9"/>
<path opacity="0.05" d="M55.1638 21.6667L54.3305 35L53.1639 54.1667L39.9972 58.5L26.8305 54.1667L26.3305 45H32.9972L33.1639 49.1667L39.9972 51.5L46.8305 49.1667L47.3305 41.6667H39.9972H32.6639L32.3305 35H39.9972H47.6639L48.1639 28.3333H39.9972H25.1639L24.6639 21.6667H39.9972H55.1638ZM56.9372 20H55.1638H39.9972H24.6639H22.8672L23.0022 21.7917L23.5022 28.4583L23.6172 30H25.1639H39.9972H46.3672L46.1172 33.3333H39.9972H32.3305H30.5789L30.6655 35.0833L30.9989 41.75L31.0789 43.3333H26.3305H24.5705L24.6672 45.09L25.1672 54.2567L25.2289 55.3933L26.3105 55.75L39.4772 60.0833L39.9972 60.255L40.5189 60.0833L53.6855 55.75L54.7588 55.3967L54.8272 54.2683L55.9939 35.1017L56.8272 21.7717L56.9372 20ZM34.5989 43.3333H39.9972H45.5489L45.2405 47.9483L39.9972 49.7383L34.7839 47.9583L34.6622 44.9333L34.5989 43.3333Z" fill="black"/>
<path opacity="0.07" d="M55.1679 21.6654L54.3345 34.9987L53.1679 54.1654L40.0012 58.4987L26.8345 54.1654L26.3345 44.9987H33.0012L33.1679 49.1654L40.0012 51.4987L46.8345 49.1654L47.3345 41.6654H40.0012H32.6679L32.3345 34.9987H40.0012H47.6679L48.1679 28.332H40.0012H25.1679L24.6679 21.6654H40.0012H55.1679ZM56.0545 20.832H55.1679H40.0012H24.6679H23.7695L23.8362 21.727L24.3362 28.3937L24.3945 29.1654H25.1679H40.0012H47.2695L46.8945 34.1654H40.0012H32.3345H31.4579L31.5012 35.0404L31.8345 41.707L31.8745 42.4987H32.6679H40.0012H46.4445L46.0412 48.5554L40.0012 50.6187L33.9779 48.562L33.8345 44.9654L33.8012 44.1654H33.0012H26.3345H25.4545L25.5029 45.0437L26.0029 54.2104L26.0345 54.7787L26.5745 54.957L39.7412 59.2904L40.0012 59.3754L40.2612 59.2904L53.4279 54.957L53.9645 54.7804L53.9995 54.2154L55.1662 35.0487L55.9995 21.717L56.0545 20.832Z" fill="black"/>
<defs>
<linearGradient id="paint0_linear_25_616" x1="27.2197" y1="-4.5813" x2="53.8247" y2="68.5137" gradientUnits="userSpaceOnUse">
<stop stop-color="#2AA4F4"/>
<stop offset="1" stop-color="#007AD9"/>
</linearGradient>
</defs>
</svg>
