<svg width="80" height="80" viewBox="0 0 80 80" fill="none" xmlns="http://www.w3.org/2000/svg">
<g clip-path="url(#clip0_25_645)">
<path d="M79.2135 33.0784C78.9968 32.9084 76.9718 31.4 72.7001 31.4C71.5718 31.405 70.4468 31.5 69.3351 31.685C68.5085 26.095 63.9701 23.4684 63.7601 23.3467L62.6135 22.6934L61.8585 23.7667C60.9135 25.21 60.0785 26.7 59.6735 28.3717C58.9085 31.5634 59.3735 34.56 61.0168 37.1217C59.0301 38.2134 55.6451 38.31 55.0018 38.3334H2.63847C1.2618 38.335 0.145135 39.4334 0.136802 40.79C0.0751352 45.345 0.725135 50.045 2.31347 54.3217C4.12847 59.0184 6.83013 62.4784 10.3435 64.595C14.2801 66.9734 20.6768 68.3334 27.9285 68.3334C31.2035 68.3434 34.4735 68.0517 37.6935 67.46C42.1701 66.6484 46.4785 65.105 50.4385 62.8934C53.7018 61.0284 56.6385 58.6567 59.1368 55.8684C63.3118 51.205 65.7985 46.0134 67.6485 41.3984C67.8968 41.3984 68.1451 41.3984 68.3851 41.3984C72.9568 41.3984 75.7668 39.5934 77.3168 38.0817C78.3468 37.1167 79.1518 35.9417 79.6735 34.64L80.0018 33.6934L79.2135 33.0784Z" fill="#2395EC"/>
<path d="M13.3307 36.6654H8.33073C7.41073 36.6654 6.66406 35.9187 6.66406 34.9987V29.9987C6.66406 29.0787 7.41073 28.332 8.33073 28.332H13.3307C14.2507 28.332 14.9974 29.0787 14.9974 29.9987V34.9987C14.9974 35.9187 14.2507 36.6654 13.3307 36.6654Z" fill="#2395EC"/>
<path d="M23.3307 36.6654H18.3307C17.4107 36.6654 16.6641 35.9187 16.6641 34.9987V29.9987C16.6641 29.0787 17.4107 28.332 18.3307 28.332H23.3307C24.2507 28.332 24.9974 29.0787 24.9974 29.9987V34.9987C24.9974 35.9187 24.2507 36.6654 23.3307 36.6654Z" fill="#2395EC"/>
<path d="M33.3307 36.6654H28.3307C27.4107 36.6654 26.6641 35.9187 26.6641 34.9987V29.9987C26.6641 29.0787 27.4107 28.332 28.3307 28.332H33.3307C34.2507 28.332 34.9974 29.0787 34.9974 29.9987V34.9987C34.9974 35.9187 34.2507 36.6654 33.3307 36.6654Z" fill="#2395EC"/>
<path d="M43.3307 36.6654H38.3307C37.4107 36.6654 36.6641 35.9187 36.6641 34.9987V29.9987C36.6641 29.0787 37.4107 28.332 38.3307 28.332H43.3307C44.2507 28.332 44.9974 29.0787 44.9974 29.9987V34.9987C44.9974 35.9187 44.2507 36.6654 43.3307 36.6654Z" fill="#2395EC"/>
<path d="M23.3307 26.6654H18.3307C17.4107 26.6654 16.6641 25.9187 16.6641 24.9987V19.9987C16.6641 19.0787 17.4107 18.332 18.3307 18.332H23.3307C24.2507 18.332 24.9974 19.0787 24.9974 19.9987V24.9987C24.9974 25.9187 24.2507 26.6654 23.3307 26.6654Z" fill="#2395EC"/>
<path d="M33.3307 26.6654H28.3307C27.4107 26.6654 26.6641 25.9187 26.6641 24.9987V19.9987C26.6641 19.0787 27.4107 18.332 28.3307 18.332H33.3307C34.2507 18.332 34.9974 19.0787 34.9974 19.9987V24.9987C34.9974 25.9187 34.2507 26.6654 33.3307 26.6654Z" fill="#2395EC"/>
<path d="M43.3307 26.6654H38.3307C37.4107 26.6654 36.6641 25.9187 36.6641 24.9987V19.9987C36.6641 19.0787 37.4107 18.332 38.3307 18.332H43.3307C44.2507 18.332 44.9974 19.0787 44.9974 19.9987V24.9987C44.9974 25.9187 44.2507 26.6654 43.3307 26.6654Z" fill="#2395EC"/>
<path d="M43.3307 16.6654H38.3307C37.4107 16.6654 36.6641 15.9187 36.6641 14.9987V9.9987C36.6641 9.0787 37.4107 8.33203 38.3307 8.33203H43.3307C44.2507 8.33203 44.9974 9.0787 44.9974 9.9987V14.9987C44.9974 15.9187 44.2507 16.6654 43.3307 16.6654Z" fill="#2395EC"/>
<path d="M53.3307 36.6654H48.3307C47.4107 36.6654 46.6641 35.9187 46.6641 34.9987V29.9987C46.6641 29.0787 47.4107 28.332 48.3307 28.332H53.3307C54.2507 28.332 54.9974 29.0787 54.9974 29.9987V34.9987C54.9974 35.9187 54.2507 36.6654 53.3307 36.6654Z" fill="#2395EC"/>
</g>
<defs>
<clipPath id="clip0_25_645">
<rect width="80" height="80" fill="white"/>
</clipPath>
</defs>
</svg>
