<svg width="80" height="80" viewBox="0 0 80 80" fill="none" xmlns="http://www.w3.org/2000/svg">
<path d="M43.3359 28.3333H30.0026C23.5593 28.3333 18.3359 23.11 18.3359 16.6667C18.3359 10.2233 23.5593 5 30.0026 5H43.3359V28.3333Z" fill="#E64A19"/>
<path d="M41.6693 51.6654H30.0026C23.5593 51.6654 18.3359 46.442 18.3359 39.9987C18.3359 33.5554 23.5593 28.332 30.0026 28.332H41.6693V51.6654Z" fill="#7C4DFF"/>
<path d="M30.0026 75.0013C23.5593 75.0013 18.3359 69.778 18.3359 63.3346C18.3359 56.8913 23.5593 51.668 30.0026 51.668H41.6693V63.3346C41.6693 69.778 36.4459 75.0013 30.0026 75.0013Z" fill="#66BB6A"/>
<path d="M53.3307 28.3333H41.6641V5H53.3307C59.7741 5 64.9974 10.2233 64.9974 16.6667C64.9974 23.11 59.7741 28.3333 53.3307 28.3333Z" fill="#FF7043"/>
<path d="M53.3307 51.6654C59.7741 51.6654 64.9974 46.442 64.9974 39.9987C64.9974 33.5554 59.7741 28.332 53.3307 28.332C46.8874 28.332 41.6641 33.5554 41.6641 39.9987C41.6641 46.442 46.8874 51.6654 53.3307 51.6654Z" fill="#29B6F6"/>
</svg>
