<svg width="80" height="80" viewBox="0 0 80 80" fill="none" xmlns="http://www.w3.org/2000/svg">
<path d="M11.9897 11.9587L16.368 61.5754C16.5497 63.637 17.9847 65.3754 19.9747 65.9437L37.713 71.012C39.2097 71.4404 40.7947 71.4404 42.2913 71.012L60.0297 65.9437C62.0197 65.3754 63.4547 63.6387 63.6363 61.5754L68.0147 11.9587C68.188 10.0087 66.653 8.33203 64.6964 8.33203H15.3097C13.353 8.33203 11.818 10.0087 11.9897 11.9587Z" fill="url(#paint0_linear_25_609)"/>
<path d="M40 13.332V66.4987L56.46 61.7954C57.7883 61.4154 58.745 60.2554 58.865 58.8804L62.675 15.1437C62.76 14.1687 61.9933 13.332 61.015 13.332H40Z" fill="#F09601"/>
<path d="M40 41.668V35.0013H54.3333L53.1667 54.168L40 58.5013V51.5013L46.8333 49.168L47.3333 41.668H40ZM54.8333 28.3346L55.3333 21.668H40V28.3346H54.8333Z" fill="white"/>
<path d="M40.0026 51.5013V58.5013L26.8359 54.168L26.1693 45.0013H32.8359L33.1693 49.168L40.0026 51.5013ZM31.8359 28.3346H40.0026V21.668H24.8359L26.0026 41.668H40.0026V35.0013H32.3359L31.8359 28.3346Z" fill="#D6E0E9"/>
<path opacity="0.05" d="M55.3331 21.6667L54.8331 28.3333H39.9997H31.8331L32.3331 35H39.9997H54.3331L53.1664 54.1667L39.9997 58.5L26.8331 54.1667L26.1664 45H32.8331L33.1664 49.1667L39.9997 51.5L46.8331 49.1667L47.3331 41.6667H39.9997H25.9997L24.8331 21.6667H39.9997H55.3331ZM57.1297 20H55.3331H39.9997H24.8331H23.0664L23.1697 21.7633L24.3364 41.7633L24.4281 43.3333H24.3747L24.5047 45.1217L25.1714 54.2883L25.2531 55.4017L26.3131 55.75L39.4797 60.0833L39.9997 60.255L40.5214 60.0833L53.6881 55.75L54.7614 55.3967L54.8297 54.2683L55.9964 35.1017L56.1047 33.3333H54.3331H39.9997H33.8797L33.6297 30H39.9997H54.8331H56.3797L56.4947 28.4583L56.9947 21.7917L57.1297 20ZM34.3714 43.3333H39.9997H45.5514L45.2431 47.9483L39.9997 49.7383L34.7397 47.9433L34.4931 44.8667L34.3714 43.3333Z" fill="black"/>
<path opacity="0.07" d="M55.3326 21.6654L54.8326 28.332H39.9992H31.8326L32.3326 34.9987H39.9992H54.3326L53.1659 54.1654L39.9992 58.4987L26.8326 54.1654L26.1659 44.9987H32.8326L33.1659 49.1654L39.9992 51.4987L46.8326 49.1654L47.3326 41.6654H39.9992H25.9992L24.8326 21.6654H39.9992H55.3326ZM56.2309 20.832H55.3326H39.9992H24.8326H23.9492L24.0009 21.7137L25.1676 41.7137L25.2126 42.4987H25.9992H39.9992H46.4426L46.0392 48.5554L39.9992 50.6187L33.9526 48.5537L33.6626 44.932L33.6009 44.1654H32.8326H26.1659H25.2692L25.3342 45.0587L26.0009 54.2254L26.0409 54.782L26.5709 54.957L39.7376 59.2904L39.9992 59.3754L40.2592 59.2904L53.4259 54.957L53.9626 54.7804L53.9976 54.2154L55.1642 35.0487L55.2176 34.1654H54.3326H39.9992H33.1059L32.7309 29.1654H39.9992H54.8326H55.6059L55.6642 28.3937L56.1642 21.727L56.2309 20.832Z" fill="black"/>
<defs>
<linearGradient id="paint0_linear_25_609" x1="30.3497" y1="4.02036" x2="56.9347" y2="77.0587" gradientUnits="userSpaceOnUse">
<stop stop-color="#F09701"/>
<stop offset="1" stop-color="#E36001"/>
</linearGradient>
</defs>
</svg>
