<svg width="80" height="80" viewBox="0 0 80 80" fill="none" xmlns="http://www.w3.org/2000/svg">
<path d="M19.1667 66.6654C15.5 66.6654 12.5 63.757 12.5 60.2004V19.797C12.5 16.2404 15.5 13.332 19.1667 13.332H60.8333C64.5 13.332 67.5 16.2404 67.5 19.797V60.2004C67.5 63.7554 64.5 66.6654 60.8333 66.6654H19.1667Z" fill="url(#paint0_linear_25_623)"/>
<path d="M12.5 47.5983V19.1667C12.5 15.5 15.5 12.5 19.1667 12.5H60.8333C64.5 12.5 67.5 15.5 67.5 19.1667V21.2417" stroke="#FAC400" stroke-width="5" stroke-miterlimit="10" stroke-linecap="round"/>
<path d="M67.5 31.0273V60.8323C67.5 64.499 64.5 67.499 60.8333 67.499H19.1667C15.5 67.499 12.5 64.499 12.5 60.8323V57.9073" stroke="#FAC400" stroke-width="5" stroke-miterlimit="10" stroke-linecap="round"/>
<path d="M48.787 53.9807C49.8353 55.6907 50.9736 57.329 53.3836 57.329C55.4086 57.329 56.472 56.3173 56.472 54.919C56.472 53.244 55.3736 52.649 53.1453 51.6757L51.9236 51.1523C48.3986 49.6507 46.0536 47.7673 46.0536 43.789C46.0536 40.124 48.8453 37.334 53.2103 37.334C56.317 37.334 58.5503 38.4157 60.1603 41.2473L56.3553 43.6907C55.517 42.189 54.6136 41.5973 53.2103 41.5973C51.7786 41.5973 50.872 42.5057 50.872 43.6907C50.872 45.1573 51.7803 45.7507 53.877 46.6573L55.0986 47.1807C59.252 48.959 61.5953 50.774 61.5953 54.8557C61.5953 59.2557 58.1386 61.6657 53.497 61.6657C48.9586 61.6657 46.3803 59.3773 44.9453 56.5423L48.787 53.9807Z" fill="#FAC400"/>
<path d="M31.0367 54.1054C31.8134 55.4837 32.9967 56.542 34.6951 56.542C36.3201 56.542 37.2567 55.907 37.2567 53.4354V37.332H42.3801V54.2137C42.3801 59.3337 39.3784 61.6654 34.9951 61.6654C31.0351 61.6654 28.1767 59.0104 27.0117 56.542L31.0367 54.1054Z" fill="#FAC400"/>
<defs>
<linearGradient id="paint0_linear_25_623" x1="65.155" y1="14.8437" x2="14.845" y2="65.1537" gradientUnits="userSpaceOnUse">
<stop stop-color="#FEE460"/>
<stop offset="0.033" stop-color="#FEE66A"/>
<stop offset="0.197" stop-color="#FEED97"/>
<stop offset="0.362" stop-color="#FFF4BD"/>
<stop offset="0.525" stop-color="#FFF9DA"/>
<stop offset="0.687" stop-color="#FFFCEE"/>
<stop offset="0.846" stop-color="#FFFEFB"/>
<stop offset="1" stop-color="white"/>
</linearGradient>
</defs>
</svg>
