<svg width="80" height="80" viewBox="0 0 80 80" fill="none" xmlns="http://www.w3.org/2000/svg">
<path d="M70 28.8346C70 63.0013 40 73.3346 40 73.3346C40 73.3346 10 63.0013 10 28.8346C10 24.668 10.3333 21.168 10.6667 18.3346C11.1667 14.168 14 10.8346 18 9.83464C23.1667 8.33464 31.3333 6.66797 40 6.66797C48.6667 6.66797 56.8333 8.33464 62.1667 9.83464C66.1667 10.8346 69 14.3346 69.5 18.3346C69.6667 21.168 70 24.8346 70 28.8346Z" fill="#5D4037"/>
<path d="M40 11.668C48.1667 11.668 55.8333 13.3346 60.8333 14.668C62.8333 15.168 64.1667 16.8346 64.5 19.0013C64.8333 22.168 65 25.5013 65 28.8346C65 54.8346 45.8333 65.3346 40 67.8346C34.1667 65.168 15 54.668 15 28.8346C15 25.5013 15.1667 22.168 15.5 19.0013C15.6667 16.8346 17.1667 15.168 19.1667 14.668C24.1667 13.3346 31.8333 11.668 40 11.668ZM40 6.66797C31.3333 6.66797 23.1667 8.33464 17.8333 9.83464C14 10.8346 11 14.3346 10.6667 18.3346C10.3333 21.168 10 24.8346 10 28.8346C10 63.0013 40 73.3346 40 73.3346C40 73.3346 70 63.0013 70 28.8346C70 24.668 69.6667 21.168 69.3333 18.3346C68.8333 14.168 66 10.8346 62 9.83464C56.8333 8.33464 48.6667 6.66797 40 6.66797Z" fill="#4CAF50"/>
<path d="M38.3359 46.668H41.6693V60.0013H38.3359V46.668Z" fill="#DCEDC8"/>
<path d="M40 16.668C40 16.668 30 25.0013 30 38.3346C30 47.0013 35.5 52.5013 38.3333 55.0013L40 50.0013L41.6667 55.0013C44.5 52.5013 50 47.0013 50 38.3346C50 25.0013 40 16.668 40 16.668Z" fill="#4CAF50"/>
<path d="M40 16.668C40 16.668 30 25.0013 30 38.3346C30 47.0013 35.5 52.5013 38.3333 55.0013L40 50.0013V16.668Z" fill="#81C784"/>
</svg>
