<svg width="80" height="80" viewBox="0 0 80 80" fill="none" xmlns="http://www.w3.org/2000/svg">
<path d="M61.04 10H18.96C16.5776 10 15.3863 10 14.4223 10.3132C12.4739 10.9463 10.9463 12.4739 10.3132 14.4223C10 15.3863 10 16.5776 10 18.96V61.04C10 63.4224 10 64.6137 10.3132 65.5777C10.9463 67.5261 12.4739 69.0537 14.4223 69.6868C15.3863 70 16.5776 70 18.96 70H61.04C63.4224 70 64.6137 70 65.5777 69.6868C67.5261 69.0537 69.0537 67.5261 69.6868 65.5777C70 64.6137 70 63.4224 70 61.04V18.96C70 16.5776 70 15.3863 69.6868 14.4223C69.0537 12.4739 67.5261 10.9463 65.5777 10.3132C64.6137 10 63.4224 10 61.04 10Z" fill="url(#paint0_linear_25_629)"/>
<path d="M45.8159 36.668H23.7109V42.108H31.6393V66.668H37.9209V42.108H45.8159V36.668Z" fill="white"/>
<path d="M65.3246 43.474C65.3246 43.474 62.3463 41.4874 58.9796 41.4874C55.6129 41.4874 54.4013 43.0874 54.4013 44.7974C54.4013 49.2107 66.7029 48.769 66.7029 57.6507C66.7029 71.3324 47.9463 65.264 47.9463 65.264V58.7007C47.9463 58.7007 51.5329 61.404 55.8346 61.404C60.1363 61.404 59.9729 58.5907 59.9729 58.204C59.9729 54.1224 47.7812 54.1224 47.7812 45.074C47.7812 32.7724 65.5446 37.6257 65.5446 37.6257L65.3246 43.474Z" fill="white"/>
<defs>
<linearGradient id="paint0_linear_25_629" x1="25.315" y1="-0.346667" x2="53.7933" y2="77.895" gradientUnits="userSpaceOnUse">
<stop stop-color="#2AA4F4"/>
<stop offset="1" stop-color="#007AD9"/>
</linearGradient>
</defs>
</svg>
